<svg width="48" height="48" viewBox="0 0 48 48" fill="none" xmlns="http://www.w3.org/2000/svg">
<path d="M24 38L38 24L44 30L30 44L24 38Z" stroke="url(#paint0_linear)" stroke-width="4" stroke-linecap="round" stroke-linejoin="round"/>
<path d="M36 26L33 11L4 4L11 33L26 36L36 26Z" stroke="url(#paint1_linear)" stroke-width="4" stroke-linecap="round" stroke-linejoin="round"/>
<path d="M4 4L19.172 19.172" stroke="url(#paint2_linear)" stroke-width="4" stroke-linecap="round" stroke-linejoin="round"/>
<path d="M22 26C24.2091 26 26 24.2091 26 22C26 19.7909 24.2091 18 22 18C19.7909 18 18 19.7909 18 22C18 24.2091 19.7909 26 22 26Z" stroke="url(#paint3_linear)" stroke-width="4" stroke-linecap="round" stroke-linejoin="round"/>
<defs>
<linearGradient id="paint0_linear" x1="24" y1="24" x2="44.567" y2="24.6012" gradientUnits="userSpaceOnUse">
<stop stop-color="#FF611E"/>
<stop offset="1" stop-color="#DABCFF"/>
</linearGradient>
<linearGradient id="paint1_linear" x1="4" y1="4" x2="36.9072" y2="4.96188" gradientUnits="userSpaceOnUse">
<stop stop-color="#FF611E"/>
<stop offset="1" stop-color="#DABCFF"/>
</linearGradient>
<linearGradient id="paint2_linear" x1="4" y1="4" x2="19.6021" y2="4.45605" gradientUnits="userSpaceOnUse">
<stop stop-color="#FF611E"/>
<stop offset="1" stop-color="#DABCFF"/>
</linearGradient>
<linearGradient id="paint3_linear" x1="18" y1="18" x2="26.2268" y2="18.2405" gradientUnits="userSpaceOnUse">
<stop stop-color="#FF611E"/>
<stop offset="1" stop-color="#DABCFF"/>
</linearGradient>
</defs>
</svg>
