<svg width="44" height="44" viewBox="0 0 44 44" fill="none" xmlns="http://www.w3.org/2000/svg">
<path fill-rule="evenodd" clip-rule="evenodd" d="M4 6.36C4 5.05661 5.05661 4 6.36 4H10V9.99998H4V6.36ZM4 14H10V20H4V14ZM0 6.36V12V22V32V37.64C0 41.1525 2.84747 44 6.36 44H12H32H37.64C41.1525 44 44 41.1525 44 37.64V32V22V12V6.36C44 2.84747 41.1525 0 37.64 0H32H12H6.36C2.84747 0 0 2.84747 0 6.36ZM40 9.99998V6.36C40 5.05661 38.9434 4 37.64 4H34V9.99998H40ZM34 14H40V20H34V14ZM30 12V4H14V20H30V12ZM40 24V30H34V24H40ZM40 34H34V40H37.64C38.9434 40 40 38.9434 40 37.64V34ZM30 24V32V40H14V24H30ZM4 34V37.64C4 38.9434 5.05661 40 6.36 40H10V34H4ZM10 30H4V24H10V30Z" fill="url(#paint0_linear)"/>
<defs>
<linearGradient id="paint0_linear" x1="0" y1="0" x2="45.2475" y2="1.32258" gradientUnits="userSpaceOnUse">
<stop stop-color="#FF9935"/>
<stop offset="1" stop-color="#0099CB"/>
</linearGradient>
</defs>
</svg>
