<svg width="32" height="32" viewBox="0 0 32 32" fill="none" xmlns="http://www.w3.org/2000/svg">
<path d="M30.6666 25.3333C30.6666 26.0406 30.3857 26.7189 29.8856 27.219C29.3855 27.719 28.7072 28 28 28H3.99998C3.29274 28 2.61446 27.719 2.11436 27.219C1.61426 26.7189 1.33331 26.0406 1.33331 25.3333V10.6667C1.33331 9.95942 1.61426 9.28115 2.11436 8.78105C2.61446 8.28095 3.29274 8 3.99998 8H9.33331L12 4H20L22.6666 8H28C28.7072 8 29.3855 8.28095 29.8856 8.78105C30.3857 9.28115 30.6666 9.95942 30.6666 10.6667V25.3333Z" stroke="url(#paint0_linear)" stroke-width="2.66667" stroke-linecap="round" stroke-linejoin="round"/>
<path d="M16 22.6667C18.9455 22.6667 21.3334 20.2789 21.3334 17.3333C21.3334 14.3878 18.9455 12 16 12C13.0545 12 10.6667 14.3878 10.6667 17.3333C10.6667 20.2789 13.0545 22.6667 16 22.6667Z" stroke="url(#paint1_linear)" stroke-width="2.66667" stroke-linecap="round" stroke-linejoin="round"/>
<defs>
<linearGradient id="paint0_linear" x1="1.33331" y1="4" x2="31.4856" y2="5.07721" gradientUnits="userSpaceOnUse">
<stop stop-color="#FF9935"/>
<stop offset="1" stop-color="#0099CB"/>
</linearGradient>
<linearGradient id="paint1_linear" x1="10.6667" y1="12" x2="21.6358" y2="12.3206" gradientUnits="userSpaceOnUse">
<stop stop-color="#FF9935"/>
<stop offset="1" stop-color="#0099CB"/>
</linearGradient>
</defs>
</svg>
