<svg width="32" height="32" viewBox="0 0 32 32" fill="none" xmlns="http://www.w3.org/2000/svg">
<path d="M26.4267 2.66699H5.57335C3.96805 2.66699 2.66669 3.96835 2.66669 5.57366V26.427C2.66669 28.0323 3.96805 29.3337 5.57335 29.3337H26.4267C28.032 29.3337 29.3334 28.0323 29.3334 26.427V5.57366C29.3334 3.96835 28.032 2.66699 26.4267 2.66699Z" stroke="white" stroke-width="2.66667" stroke-linecap="round" stroke-linejoin="round"/>
<path fill-rule="evenodd" clip-rule="evenodd" d="M9.33339 1.33398C10.0698 1.33398 10.6667 1.93094 10.6667 2.66732V14.667H21.3334V9.33333V2.66732C21.3334 1.93094 21.9303 1.33398 22.6667 1.33398C23.4031 1.33398 24 1.93094 24 2.66732V8H29.3334C30.0698 8 30.6667 8.59695 30.6667 9.33333C30.6667 10.0697 30.0698 10.6667 29.3334 10.6667H24V14.667H29.3334C30.0698 14.667 30.6667 15.2639 30.6667 16.0003C30.6667 16.7367 30.0698 17.3337 29.3334 17.3337H24V21.334H29.3334C30.0698 21.334 30.6667 21.9309 30.6667 22.6673C30.6667 23.4037 30.0698 24.0007 29.3334 24.0007H24V29.334C24 30.0704 23.4031 30.6673 22.6667 30.6673C21.9303 30.6673 21.3334 30.0704 21.3334 29.334V22.6673V17.3337H10.6667V29.334C10.6667 30.0704 10.0698 30.6673 9.33339 30.6673C8.59701 30.6673 8.00006 30.0704 8.00006 29.334V24.0007H2.66671C1.93033 24.0007 1.33337 23.4037 1.33337 22.6673C1.33337 21.9309 1.93033 21.334 2.66671 21.334H8.00006V17.3337H2.66671C1.93033 17.3337 1.33337 16.7367 1.33337 16.0003C1.33337 15.2639 1.93033 14.667 2.66671 14.667H8.00006V10.6667H2.66671C1.93033 10.6667 1.33337 10.0697 1.33337 9.33333C1.33337 8.59695 1.93033 8 2.66671 8H8.00006V2.66732C8.00006 1.93094 8.59701 1.33398 9.33339 1.33398Z" fill="white"/>
</svg>
