<svg width="24" height="24" viewBox="0 0 24 24" fill="none" xmlns="http://www.w3.org/2000/svg">
<path d="M19 3H5C3.89543 3 3 3.89543 3 5V19C3 20.1046 3.89543 21 5 21H19C20.1046 21 21 20.1046 21 19V5C21 3.89543 20.1046 3 19 3Z" stroke="url(#paint0_linear_803:53)" stroke-width="2" stroke-linecap="round" stroke-linejoin="round"/>
<path d="M8.5 10C9.32843 10 10 9.32843 10 8.5C10 7.67157 9.32843 7 8.5 7C7.67157 7 7 7.67157 7 8.5C7 9.32843 7.67157 10 8.5 10Z" stroke="url(#paint1_linear_803:53)" stroke-width="2" stroke-linecap="round" stroke-linejoin="round"/>
<path d="M21 15L16 10L5 21" stroke="url(#paint2_linear_803:53)" stroke-width="2" stroke-linecap="round" stroke-linejoin="round"/>
<defs>
<linearGradient id="paint0_linear_803:53" x1="3" y1="3" x2="21.5103" y2="3.54106" gradientUnits="userSpaceOnUse">
<stop stop-color="#FF611E"/>
<stop offset="1" stop-color="#DABCFF"/>
</linearGradient>
<linearGradient id="paint1_linear_803:53" x1="7" y1="7" x2="10.0851" y2="7.09018" gradientUnits="userSpaceOnUse">
<stop stop-color="#FF611E"/>
<stop offset="1" stop-color="#DABCFF"/>
</linearGradient>
<linearGradient id="paint2_linear_803:53" x1="5" y1="10" x2="21.438" y2="10.6989" gradientUnits="userSpaceOnUse">
<stop stop-color="#FF611E"/>
<stop offset="1" stop-color="#DABCFF"/>
</linearGradient>
</defs>
</svg>
