<svg width="204" height="215" viewBox="0 0 204 215" fill="none" xmlns="http://www.w3.org/2000/svg">
<path d="M158.544 14.586C159.83 14.586 161.188 15.5348 161.772 17.1821C165.709 28.2832 174.849 36.9091 186.263 40.1014C188.305 40.6727 189.427 42.4029 189.245 43.899L182.674 97.7605C177.383 141.139 149.859 178.62 110.053 196.653L103.109 199.799C102.358 200.139 101.498 200.139 100.747 199.799L93.8029 196.653C53.9972 178.62 26.4729 141.139 21.1816 97.7605L14.6115 43.899C14.429 42.4029 15.5509 40.6727 17.5934 40.1014C29.0068 36.9091 38.147 28.2832 42.0841 17.1821C42.6683 15.5348 44.0261 14.586 45.3118 14.586H158.544ZM31.2946 13.3556L33.7177 14.215L31.2946 13.3556C28.5907 20.9796 22.3031 26.8968 14.5098 29.0766C8.27803 30.8196 2.23342 36.9697 3.24775 45.2851L9.81786 99.1467C15.593 146.491 45.6338 187.399 89.0789 207.081L96.023 210.227C99.7761 211.927 104.08 211.927 107.833 210.227L114.777 207.081C158.222 187.399 188.263 146.491 194.038 99.1467L200.608 45.2851C201.623 36.9697 195.578 30.8196 189.346 29.0766C181.553 26.8968 175.265 20.9796 172.561 13.3556C170.683 8.05913 165.585 3.13801 158.544 3.13801H45.3118C38.2706 3.13801 33.173 8.05913 31.2946 13.3556Z" stroke="url(#paint0_linear)" stroke-width="5.72397"/>
<path fill-rule="evenodd" clip-rule="evenodd" d="M45.3119 11.7241C42.5914 11.7241 40.2961 13.6616 39.3867 16.2257C35.758 26.4576 27.3309 34.4063 16.8225 37.3455C13.7243 38.2121 11.381 41.0523 11.7706 44.2458L18.3406 98.1071C23.7529 142.477 51.9063 180.815 92.6219 199.26L99.566 202.406C101.067 203.086 102.789 203.086 104.29 202.406L111.234 199.26C151.95 180.815 180.103 142.477 185.515 98.1071L192.086 44.2458C192.475 41.0523 190.132 38.2121 187.034 37.3455C176.525 34.4063 168.098 26.4576 164.469 16.2257C163.56 13.6616 161.265 11.7241 158.544 11.7241H142.519L101.928 11.7231L61.3368 11.7241H45.3119Z" fill="url(#paint1_linear)"/>
<defs>
<linearGradient id="paint0_linear" x1="101.928" y1="-58.7318" x2="254.329" y2="93.7719" gradientUnits="userSpaceOnUse">
<stop stop-color="#FF9935"/>
<stop offset="1" stop-color="#0099CB"/>
</linearGradient>
<linearGradient id="paint1_linear" x1="101.928" y1="-79.5714" x2="258.164" y2="76.2444" gradientUnits="userSpaceOnUse">
<stop stop-color="#FF9935"/>
<stop offset="1" stop-color="#0099CB"/>
</linearGradient>
</defs>
</svg>
